<svg width="54" height="55" viewBox="0 0 54 55" fill="none" xmlns="http://www.w3.org/2000/svg">
<path d="M21.0879 23.6906C21.0264 21.2322 21.0988 18.7496 21.1637 17.2034C22.5108 17.9193 24.658 19.0967 26.7175 20.3802C27.9554 21.1516 29.1448 21.9509 30.1043 22.703C31.0961 23.4803 31.7313 24.1236 31.9838 24.569C32.2363 25.0145 32.4657 25.8964 32.6307 27.1599C32.7905 28.3822 32.8754 29.8311 32.9124 31.3087C32.9739 33.7671 32.9015 36.2497 32.8366 37.7959C31.4895 37.08 29.3423 35.9026 27.2828 34.6191C26.0449 33.8477 24.8555 33.0484 23.896 32.2963C22.9042 31.519 22.269 30.8757 22.0165 30.4302C21.764 29.9848 21.5346 29.1029 21.3696 27.8394C21.2098 26.617 21.1249 25.1682 21.0879 23.6906Z" stroke="white" stroke-width="2"/>
<ellipse cx="27" cy="27.5" rx="20.25" ry="20.625" stroke="white" stroke-width="2"/>
</svg>
