<svg width="96" height="101" viewBox="0 0 96 101" fill="none" xmlns="http://www.w3.org/2000/svg">
<path d="M75.2867 34.098C81.833 34.098 87.1399 28.5381 87.1399 21.6796C87.1399 14.8211 81.833 9.26123 75.2867 9.26123C68.7404 9.26123 63.4336 14.8211 63.4336 21.6796C63.4336 28.5381 68.7404 34.098 75.2867 34.098Z" fill="black"/>
<path d="M78.4475 39.9762C78.3685 39.9762 78.2895 40.0176 78.2105 40.0176C77.8154 40.1004 77.4203 40.1418 76.9857 40.2245C75.3262 40.3901 73.5482 40.3073 71.7308 39.9348C71.2566 39.8106 70.8615 39.7278 70.4269 39.5622C69.1231 39.2311 67.8982 38.6929 66.7524 37.9892C66.2783 37.7409 65.8042 37.4097 65.3696 37.12C63.4731 35.7539 61.8531 34.0568 60.5493 32.0698C60.2727 31.6145 59.9566 31.1177 59.7196 30.621C59.0479 29.4206 58.5343 28.1373 58.2182 26.7713C58.0601 26.316 57.9811 25.902 57.8626 25.4053C57.507 23.5011 57.428 21.6384 57.586 19.8998C57.665 19.4445 57.7045 19.0305 57.7836 18.6166C57.7836 18.5338 57.8231 18.451 57.8231 18.3682C58.2972 15.8018 56.4797 13.4009 53.951 13.4009H29.9287C29.3755 13.4009 28.8224 13.4423 28.3087 13.4837C27.8346 13.5251 27.4 13.5665 26.9259 13.6492C26.4517 13.6906 25.9776 13.7734 25.543 13.8562C16.021 15.305 9.93636 21.6384 8.55349 31.6559C8.47447 32.1112 8.39545 32.6079 8.35594 33.1047C8.27692 33.6014 8.2374 34.0568 8.19789 34.5535C8.15838 35.0916 8.11887 35.6711 8.11887 36.2507V69.2007C8.11887 69.7802 8.15838 70.3598 8.19789 70.8979C8.2374 71.3946 8.27692 71.85 8.35594 72.3467C8.39545 72.8434 8.47447 73.3402 8.55349 73.7955C9.93636 83.813 16.021 90.1464 25.543 91.5952C25.9776 91.678 26.4517 91.7607 26.9259 91.8021C27.4 91.8849 27.8346 91.9263 28.3087 91.9677C28.8224 92.0091 29.3755 92.0505 29.9287 92.0505H61.379C61.9322 92.0505 62.4853 92.0091 62.9989 91.9677C63.4731 91.9263 63.9077 91.8849 64.3818 91.8021C64.8559 91.7607 65.3301 91.678 65.7647 91.5952C75.2867 90.1464 81.3713 83.813 82.7542 73.7955C82.8332 73.3402 82.9122 72.8434 82.9517 72.3467C83.0308 71.85 83.0703 71.3946 83.1098 70.8979C83.1493 70.3598 83.1888 69.7802 83.1888 69.2007V44.0328C83.1888 41.3836 80.8972 39.4794 78.4475 39.9762ZM26.8864 52.7257H46.6416C48.2615 52.7257 49.6049 54.1331 49.6049 55.8303C49.6049 57.5275 48.2615 58.9349 46.6416 58.9349H26.8864C25.2664 58.9349 23.9231 57.5275 23.9231 55.8303C23.9231 54.1331 25.2664 52.7257 26.8864 52.7257ZM62.4458 75.4927H26.8864C25.2664 75.4927 23.9231 74.0853 23.9231 72.3881C23.9231 70.6909 25.2664 69.2835 26.8864 69.2835H62.4458C64.0657 69.2835 65.4091 70.6909 65.4091 72.3881C65.4091 74.0853 64.0657 75.4927 62.4458 75.4927Z" fill="black"/>
</svg>
