<svg width="96" height="101" viewBox="0 0 96 101" fill="none" xmlns="http://www.w3.org/2000/svg">
<path d="M84.1766 38.5548C75.0497 23.5285 61.6951 14.8771 47.6294 14.8771C40.5965 14.8771 33.7612 17.0296 27.5185 21.0449C21.2759 25.1015 15.6654 31.0209 11.0822 38.5548C7.13112 45.0537 7.13112 55.6093 11.0822 62.1083C20.2091 77.1759 33.5636 85.7859 47.6294 85.7859C54.6622 85.7859 61.4976 83.6334 67.7402 79.6181C73.9829 75.5615 79.5934 69.6421 84.1766 62.1083C88.1276 55.6507 88.1276 45.0537 84.1766 38.5548ZM47.6294 67.0756C38.779 67.0756 31.6671 59.5832 31.6671 50.3522C31.6671 41.1212 38.779 33.6288 47.6294 33.6288C56.4797 33.6288 63.5916 41.1212 63.5916 50.3522C63.5916 59.5832 56.4797 67.0756 47.6294 67.0756Z" fill="#050505"/>
<path d="M47.6294 38.5133C41.4262 38.5133 36.3689 43.8118 36.3689 50.3521C36.3689 56.8511 41.4262 62.1496 47.6294 62.1496C53.8325 62.1496 58.9294 56.8511 58.9294 50.3521C58.9294 43.8532 53.8325 38.5133 47.6294 38.5133Z" fill="#050505"/>
</svg>
