<svg width="96" height="101" viewBox="0 0 96 101" fill="none" xmlns="http://www.w3.org/2000/svg">
<path d="M28.8224 9.18713H21.3154C12.6626 9.18713 8.11888 13.9475 8.11888 22.9715V30.8365C8.11888 39.8605 12.6626 44.6209 21.2759 44.6209H28.7829C37.3962 44.6209 41.9399 39.8605 41.9399 30.8365V22.9715C41.9794 13.9475 37.4357 9.18713 28.8224 9.18713Z" fill="black"/>
<path d="M73.9829 9.18713H66.4759C57.8626 9.18713 53.3189 13.9475 53.3189 22.9715V30.8365C53.3189 39.8605 57.8626 44.6209 66.4759 44.6209H73.9829C82.5962 44.6209 87.1399 39.8605 87.1399 30.8365V22.9715C87.1399 13.9475 82.5962 9.18713 73.9829 9.18713Z" fill="black"/>
<path d="M73.9829 56.5011H66.4759C57.8626 56.5011 53.3189 61.2615 53.3189 70.2855V78.1504C53.3189 87.1745 57.8626 91.9348 66.4759 91.9348H73.9829C82.5962 91.9348 87.1399 87.1745 87.1399 78.1504V70.2855C87.1399 61.2615 82.5962 56.5011 73.9829 56.5011Z" fill="black"/>
<path d="M28.8224 56.5011H21.3154C12.6626 56.5011 8.11888 61.2615 8.11888 70.2855V78.1504C8.11888 87.2158 12.6626 91.9762 21.2759 91.9762H28.7829C37.3962 91.9762 41.9399 87.2158 41.9399 78.1918V70.3269C41.9794 61.2615 37.4357 56.5011 28.8224 56.5011Z" fill="black"/>
</svg>
