<svg width="70" height="70" viewBox="0 0 70 70" fill="none" xmlns="http://www.w3.org/2000/svg">
<path d="M45.6666 34.9999C45.6666 40.891 40.891 45.6666 35 45.6666C29.1089 45.6666 24.3333 40.891 24.3333 34.9999C24.3333 29.1089 29.1089 24.3333 35 24.3333C40.891 24.3333 45.6666 29.1089 45.6666 34.9999Z" stroke="white" stroke-width="2"/>
<path d="M60.47 33.9139C60.845 34.4168 61.0324 34.6682 61.0324 35C61.0324 35.3318 60.845 35.5832 60.47 36.0861C57.621 39.907 47.2981 52.5 35 52.5C22.7019 52.5 12.379 39.907 9.53 36.0861C9.15504 35.5832 8.96756 35.3318 8.96756 35C8.96756 34.6682 9.15504 34.4168 9.53 33.9139C12.379 30.093 22.7019 17.5 35 17.5C47.2981 17.5 57.621 30.093 60.47 33.9139Z" stroke="white" stroke-width="2"/>
</svg>
